<?xml version="1.0" standalone="no"?>
<!DOCTYPE svg PUBLIC "-//W3C//DTD SVG 20010904//EN"
 "http://www.w3.org/TR/2001/REC-SVG-20010904/DTD/svg10.dtd">
<svg version="1.0" xmlns="http://www.w3.org/2000/svg"
 width="1040.000000pt" height="257.000000pt" viewBox="0 0 1040.000000 257.000000"
 preserveAspectRatio="xMidYMid meet">

<g transform="translate(0.000000,257.000000) scale(0.100000,-0.100000)"
fill="#000000" stroke="none">
<path d="M370 2214 c-147 -40 -272 -176 -300 -325 -25 -133 -6 -294 47 -391
14 -26 143 -179 286 -340 143 -160 266 -306 273 -324 17 -39 18 -141 3 -181
-29 -78 -113 -120 -220 -110 -109 10 -189 81 -189 169 l0 38 -105 0 -105 0 0
-27 c0 -49 29 -163 52 -209 12 -25 42 -63 65 -85 89 -82 183 -102 441 -97
l178 3 76 38 c89 44 162 116 205 205 25 53 28 68 31 199 4 162 -6 215 -60 299
-18 29 -143 176 -278 328 -135 152 -254 293 -265 314 -25 47 -26 152 -2 198
22 42 69 81 115 94 52 14 127 13 165 -4 60 -25 117 -111 117 -178 0 -16 12
-18 106 -18 l107 0 -6 59 c-12 114 -74 235 -146 285 -87 60 -129 69 -341 73
-151 2 -207 -1 -250 -13z"/>
<path d="M1530 1280 l0 -950 525 0 525 0 0 105 0 105 -315 0 -315 0 0 315 0
315 210 0 210 0 0 105 0 105 -210 0 -210 0 0 320 0 320 315 0 315 0 0 105 0
105 -525 0 -525 0 0 -950z"/>
<path d="M3320 2214 c-147 -40 -272 -176 -300 -325 -6 -31 -10 -356 -10 -805
l0 -754 210 0 210 0 0 420 0 420 213 -2 212 -3 3 -418 2 -417 210 0 210 0 0
738 c0 451 -4 762 -10 802 -22 140 -114 260 -247 323 l-68 32 -290 2 c-233 2
-301 -1 -345 -13z m438 -237 c23 -14 54 -48 69 -74 l28 -48 3 -237 4 -238
-216 0 -216 0 0 223 c0 122 4 238 10 257 13 49 66 109 114 132 60 27 150 21
204 -15z"/>
<path d="M4690 1280 l0 -950 210 0 210 0 0 420 0 420 128 0 c140 0 182 -12
236 -66 59 -60 61 -68 64 -436 l3 -338 210 0 209 0 0 370 c0 219 -4 389 -10
418 -13 58 -57 115 -111 142 -29 15 -60 20 -131 21 l-93 1 64 20 c115 35 174
88 232 204 61 123 63 360 3 481 -41 84 -114 157 -202 200 l-76 38 -473 3 -473
3 0 -951z m715 721 c53 -24 112 -90 122 -138 10 -48 10 -276 0 -324 -10 -47
-71 -117 -121 -140 -33 -15 -66 -19 -168 -19 l-128 0 0 320 0 320 128 0 c101
0 135 -4 167 -19z"/>
<path d="M6690 2214 c-148 -40 -272 -174 -300 -325 -13 -68 -13 -1150 0 -1218
20 -109 106 -228 205 -287 85 -49 141 -56 458 -52 272 3 296 5 346 25 29 12
70 34 91 48 76 53 134 165 147 285 l6 60 -107 0 c-94 0 -106 -2 -106 -17 0
-37 -22 -94 -47 -124 -49 -57 -90 -69 -253 -69 -80 0 -162 5 -184 11 -50 14
-118 82 -134 135 -17 59 -17 1129 0 1188 16 53 84 121 134 135 22 6 104 11
184 11 157 0 201 -11 247 -61 23 -26 53 -98 53 -130 0 -17 9 -19 106 -19 l107
0 -6 63 c-17 185 -130 315 -301 346 -93 17 -578 13 -646 -5z"/>
<path d="M8070 1280 l0 -950 210 0 210 0 0 420 0 420 213 -2 212 -3 3 -418 2
-417 210 0 210 0 0 950 0 950 -210 0 -210 0 0 -425 0 -425 -215 0 -215 0 0
425 0 425 -210 0 -210 0 0 -950z"/>
<path d="M9960 1600 l0 -630 210 0 210 0 0 630 0 630 -210 0 -210 0 0 -630z"/>
<path d="M9960 540 l0 -210 210 0 210 0 0 210 0 210 -210 0 -210 0 0 -210z"/>
</g>
</svg>
